<svg id="Layer_1" data-name="Layer 1" xmlns="http://www.w3.org/2000/svg" width="1220" height="830" viewBox="0 0 1220 830">
  <g>
    <path d="M519,196.62l5.13-12.35-4.62-1.92a263.74,263.74,0,1,0-1.8,487.77l4.63-1.88-5.05-12.39-4.63,1.89a250.38,250.38,0,1,1,1.72-463Z"/>
    <path d="M529.61,709.72a304.82,304.82,0,1,1,1.06-567.19l4.65,1.84,4.92-12.44-4.65-1.84a318.17,318.17,0,1,0-1.11,592.08l4.66-1.82-4.88-12.46Z"/>
    <path d="M311.56,260.07a197.37,197.37,0,0,1,187.11-14.4l4.57,2,5.44-12.22-4.57-2A210.61,210.61,0,1,0,399.24,635.57q9.52.87,19.08.87a211.64,211.64,0,0,0,83-17l4.59-2-5.25-12.3-4.6,2a197.23,197.23,0,0,1-184.51-347.1Z"/>
    <path d="M940.2,196.52l5.13-12.35-4.62-1.92A263.76,263.76,0,1,0,812.07,688.12a260.45,260.45,0,0,0,27.21,1.42,265,265,0,0,0,99.57-19.41l4.63-1.89-5-12.38-4.64,1.88a250.37,250.37,0,1,1,1.77-463.14Z"/>
    <path d="M956.69,144.37l4.93-12.44L957,130.09a318.17,318.17,0,1,0-1.11,592.08l4.65-1.82-4.88-12.45L951,709.72A304.82,304.82,0,1,1,952,142.53Z"/>
    <path d="M732.73,260.15a197.38,197.38,0,0,1,187.11-14.48l4.57,2,5.43-12.22-4.57-2a210.61,210.61,0,1,0-104.7,402.16q9.49.85,19,.86a211.47,211.47,0,0,0,83.09-17l4.6-2L922,605.2l-4.6,2a197.24,197.24,0,0,1-184.66-347Z"/>
    <rect x="1010.01" y="100" width="13.37" height="645.22"/>
    <rect x="1067.84" y="100" width="13.37" height="645.22"/>
    <rect x="1119.57" y="100" width="13.37" height="645.22"/>
  </g>
</svg>
